<mxfile host="app.diagrams.net" modified="2023-04-04T17:21:07.796Z" agent="Mozilla/5.0 (Windows NT 10.0; Win64; x64) AppleWebKit/537.36 (KHTML, like Gecko) Chrome/111.0.0.0 Safari/537.36" version="21.1.4" etag="4DwhqeKL7JWy2g1m4FLd" type="github">
  <diagram name="Page-1" id="4OQf_n2x_XL-S8jU3Ibg">
    <mxGraphModel>
      <root>
        <mxCell id="0" />
        <mxCell id="1" parent="0" />
      </root>
    </mxGraphModel>
  </diagram>
</mxfile>
